<svg id="Camada_1" data-name="Camada 1" xmlns="http://www.w3.org/2000/svg" viewBox="0 0 250 250"><defs><style>.cls-1{fill:#00695c;}</style></defs><title>configuração</title><path class="cls-1" d="M237.2,98.76l-17.54-3a99.82,99.82,0,0,0-7-17L223,64.29a15.42,15.42,0,0,0-1.67-19.9L205.71,28.83a15.32,15.32,0,0,0-19.84-1.67L171.35,37.5a98,98,0,0,0-17.65-7.26L150.77,12.9A15.42,15.42,0,0,0,135.52,0h-22A15.42,15.42,0,0,0,98.29,12.9l-3,17.76a96.69,96.69,0,0,0-17,7.15L63.92,27.47A15.44,15.44,0,0,0,44,29.14L28.41,44.7a15.46,15.46,0,0,0-1.67,19.9L37.18,79.28a96.37,96.37,0,0,0-6.94,17.07L12.9,99.28A15.43,15.43,0,0,0,0,114.53v22a15.43,15.43,0,0,0,12.9,15.25l17.76,3a96.37,96.37,0,0,0,7.15,17L27.52,186.08A15.38,15.38,0,0,0,29.19,206l15.57,15.57a15.34,15.34,0,0,0,10.91,4.54,15.16,15.16,0,0,0,8.93-2.87l14.68-10.45a98,98,0,0,0,16.5,6.79L98.7,237.1A15.43,15.43,0,0,0,114,250h22a15.42,15.42,0,0,0,15.25-12.9l3-17.55a98.59,98.59,0,0,0,17-7.05l14.47,10.34a15.35,15.35,0,0,0,9,2.88h0a15.33,15.33,0,0,0,10.92-4.55l15.56-15.56a15.46,15.46,0,0,0,1.67-19.9L212.5,171.19a97.92,97.92,0,0,0,7.05-17l17.55-2.93A15.42,15.42,0,0,0,250,136V114A15.24,15.24,0,0,0,237.2,98.76ZM236,136a1.35,1.35,0,0,1-1.15,1.36L212.92,141a7,7,0,0,0-5.64,5.17,83.64,83.64,0,0,1-9.09,21.88,7.07,7.07,0,0,0,.32,7.68l12.9,18.17a1.44,1.44,0,0,1-.16,1.78l-15.56,15.56a1.38,1.38,0,0,1-1,.42,1.33,1.33,0,0,1-.78-.26l-18.12-12.9a7.06,7.06,0,0,0-7.68-.32,83.16,83.16,0,0,1-21.88,9.09,6.92,6.92,0,0,0-5.17,5.64l-3.71,21.93A1.35,1.35,0,0,1,136,236H114a1.35,1.35,0,0,1-1.36-1.15L109,212.92a7,7,0,0,0-5.17-5.64,86.89,86.89,0,0,1-21.41-8.77,7.2,7.2,0,0,0-3.55-.94,6.84,6.84,0,0,0-4.07,1.3l-18.28,13a1.64,1.64,0,0,1-.79.26,1.43,1.43,0,0,1-1-.42L39.17,196.16a1.43,1.43,0,0,1-.16-1.78l12.85-18a7.15,7.15,0,0,0,.31-7.73A82.75,82.75,0,0,1,43,146.8a7.15,7.15,0,0,0-5.64-5.17l-22.09-3.76a1.35,1.35,0,0,1-1.15-1.35v-22a1.36,1.36,0,0,1,1.15-1.36L37,109.52a7.07,7.07,0,0,0,5.69-5.23,83.53,83.53,0,0,1,8.93-21.93,7,7,0,0,0-.37-7.63l-13-18.28a1.41,1.41,0,0,1,.16-1.77L54,39.12a1.32,1.32,0,0,1,1-.42,1.27,1.27,0,0,1,.79.26l18,12.85a7.15,7.15,0,0,0,7.73.31,82.89,82.89,0,0,1,21.83-9.19,7.15,7.15,0,0,0,5.17-5.64l3.76-22.09a1.36,1.36,0,0,1,1.36-1.15h22A1.34,1.34,0,0,1,137,15.2L140.64,37a7.08,7.08,0,0,0,5.22,5.69,84.48,84.48,0,0,1,22.41,9.19,7.07,7.07,0,0,0,7.67-.31l18-13a1.61,1.61,0,0,1,.79-.26,1.45,1.45,0,0,1,1,.42L211.3,54.31a1.43,1.43,0,0,1,.16,1.78l-12.9,18.12a7.06,7.06,0,0,0-.32,7.68,83.16,83.16,0,0,1,9.09,21.88,6.94,6.94,0,0,0,5.64,5.17l21.94,3.71a1.35,1.35,0,0,1,1.15,1.36v22Z"/><path class="cls-1" d="M125,71A53.95,53.95,0,1,0,179,125,54,54,0,0,0,125,71Zm0,93.79A39.85,39.85,0,1,1,164.87,125,39.87,39.87,0,0,1,125,164.82Z"/></svg>