<svg id="Camada_1" data-name="Camada 1" xmlns="http://www.w3.org/2000/svg" viewBox="0 0 250 250"><defs><style>.cls-1{fill:#fff;}</style></defs><title>Easy Buy</title><path class="cls-1" d="M212.38963,188.33667H78.58969L74.83,170.28916H219.69527a7.63985,7.63985,0,0,0,7.34606-5.781l21.3798-100.36151a8.08866,8.08866,0,0,0-1.55353-6.75122,7.40845,7.40845,0,0,0-5.78675-2.749H50.71277L42.46,15.07475a7.63985,7.63985,0,0,0-7.34606-5.781H8.80211a7.36133,7.36133,0,0,0-7.40958,7.6406A7.8914,7.8914,0,0,0,3.20594,22.057a7.18214,7.18214,0,0,0,5.59617,2.50643H28.9749L44.82784,100.4265a5.9413,5.9413,0,0,0,.44469,2.25811l18.40558,88.27978a26.18244,26.18244,0,0,0,9.98533,49.71874c.36961.01155.73345.0231,1.10306.0231,13.29452,0,24.26164-10.32607,25.65346-24.00175a7.3122,7.3122,0,0,0,.25411-2.0964,5.35425,5.35425,0,0,0-.16748-1.73834,28.88568,28.88568,0,0,0-2.50644-9.26343H188.9423a25.65476,25.65476,0,0,0-2.43714,10.93246c0,13.81429,11.1,25.538,24.75253,26.14436,13.66991.31763,25.34737-9.92181,26.82583-24.16346a8.40171,8.40171,0,0,0,.20213-1.88272,5.789,5.789,0,0,0-.16171-1.77876C236.65127,198.65119,225.82853,188.33667,212.38963,188.33667ZM83.75272,215.37618a8.5239,8.5239,0,0,1-8.84184,8.25854c-.08085,0-.16748,0-.25411-.00577-3.64993-.09241-7.9178-2.31586-7.9178-8.25277s4.26787-8.15459,7.9178-8.247c.08663-.00578.16748-.00578.25411-.00578A8.52286,8.52286,0,0,1,83.75272,215.37618Zm137.50763,0a8.5239,8.5239,0,0,1-8.84184,8.25854c-.08086,0-.16748,0-.25411-.00577-3.64993-.09241-7.91781-2.31586-7.91781-8.25277s4.26788-8.15459,7.91781-8.247c.08663-.00578.16748-.00578.25411-.00578A8.52286,8.52286,0,0,1,221.26035,215.37618ZM231.73079,69.9161l-18.13992,85.10341H71.64789L53.89491,69.9161Z"/></svg>