<svg id="Camada_1" data-name="Camada 1" xmlns="http://www.w3.org/2000/svg" viewBox="0 0 200 200"><defs><style>.cls-1{fill:#4f4f4f;}</style></defs><title>Icon Entrega</title><path class="cls-1" d="M191.20295,70.41735a28.9977,28.9977,0,0,0-21.64485-9.08347h-20.581V50.20458a4.92441,4.92441,0,0,0-4.91-4.91H46.0311a4.92442,4.92442,0,0,0-4.91,4.91V67.30769h-19.108a4.91,4.91,0,0,0,0,9.82H46.072a4.92442,4.92442,0,0,0,4.91-4.91V55.11457h88.216v76.964H92.96236a3.0965,3.0965,0,0,0-.61374.04092,16.46271,16.46271,0,0,0-30.60556.08184,4.717,4.717,0,0,0-1.06384-.12275H50.982v-17.144a4.92442,4.92442,0,0,0-4.91-4.91H22.01309a4.91,4.91,0,1,0,0,9.82h19.108v17.10311a4.92442,4.92442,0,0,0,4.91,4.91H60.96563a16.48683,16.48683,0,0,0,32.1604,0h58.838a16.48681,16.48681,0,0,0,32.16038,0H195.09a4.92441,4.92441,0,0,0,4.91-4.91V96.15384C200,85.55646,196.93126,76.63666,191.20295,70.41735Zm-114.15712,74.509a6.66939,6.66939,0,1,1,6.6694-6.66939A6.67057,6.67057,0,0,1,77.04583,144.92635Zm90.99837,0a6.66939,6.66939,0,1,1,6.66939-6.66939A6.67056,6.67056,0,0,1,168.0442,144.92635ZM190.18,132.07855h-6.874a16.45046,16.45046,0,0,0-30.52372,0H149.018V71.15384h20.581c12.88871,0,20.581,9.36988,20.581,25.04092Z"/><path class="cls-1" d="M84.329,102.78232a4.91,4.91,0,0,0,3.47791,8.38789,4.99756,4.99756,0,0,0,3.4779-1.43207L103.928,97.09493l.04092-.04092c.08183-.12275.20458-.20458.28641-.32733.04092-.08183.08183-.12275.12275-.20459a.71846.71846,0,0,1,.16367-.20458l.12275-.2455c.04092-.08183.08183-.12275.12275-.20458l.12274-.2455c.04092-.08184.08184-.12275.08184-.20459.04092-.08183.04092-.16366.08184-.2455s.04092-.16366.08184-.20458a.51891.51891,0,0,0,.04092-.2455c0-.08183.04092-.16367.04092-.2455s.04092-.16367.04092-.28642c0-.08183.04091-.12275.04091-.20458a3.943,3.943,0,0,0,0-.982.36891.36891,0,0,0-.04091-.20458c0-.08183-.04092-.16366-.04092-.28641,0-.08183-.04092-.16367-.04092-.2455s-.04092-.16367-.04092-.24551c-.04092-.08183-.04092-.16366-.08184-.20458-.04092-.08183-.04092-.16366-.08184-.2455s-.08184-.12275-.08184-.20458l-.12274-.2455c-.04092-.08184-.08183-.12276-.12275-.20459l-.12275-.2455a.71829.71829,0,0,0-.16367-.20458c-.04092-.08183-.08183-.12275-.12275-.20458-.08183-.12276-.20458-.20459-.28641-.32734l-.04092-.04092L91.89853,77.86414A4.9185,4.9185,0,0,0,84.94272,84.82l3.64157,3.64156H4.91a4.91,4.91,0,0,0,0,9.82H88.54337Z"/></svg>