<svg id="Camada_1" data-name="Camada 1" xmlns="http://www.w3.org/2000/svg" viewBox="0 0 250 250"><defs><style>.cls-1{fill:#00856d;}</style></defs><title>icon suporte</title><path class="cls-1" d="M39.43609,119.585c-.63546-19.53347,1.85924-43.62023,14.20819-62.61137,13.95278-21.44769,38.01183-32.44531,71.35217-32.44531,33.34,0,57.39942,10.99762,71.35179,32.44531,12.34932,18.99114,14.844,43.0779,14.20819,62.61137h11.166c.78169-21.5973-2.03433-48.57672-16.19914-70.51549-16.12578-24.9758-43.28585-37.80537-80.52682-37.80537-37.24135,0-64.40142,12.82957-80.52346,37.80537C30.30855,71.00825,27.49219,97.98767,28.27015,119.585Z"/><path class="cls-1" d="M31.40405,106.00662a17.84392,17.84392,0,0,0-7.6958-1.8024C10.61388,104.20422,0,118.89453,0,137.0187c0,18.12192,10.61388,32.81409,23.70825,32.81409a17.819,17.819,0,0,0,7.6958-1.80426Z"/><path class="cls-1" d="M40.024,97.60617a13.86011,13.86011,0,0,0-6.63283-1.73881h-.28127A14.02139,14.02139,0,0,0,19.088,109.88743v56.93A14.02267,14.02267,0,0,0,33.10994,180.8379h.28127a13.88559,13.88559,0,0,0,6.63283-1.73881Z"/><path class="cls-1" d="M221.737,168.03564l-6.27864-.01272c-.00748,2.34659-.935,54.69116-65.4423,60.09123a6.68568,6.68568,0,0,0-5.56651-3.1137H119.85707a6.79783,6.79783,0,0,0-6.797,6.79928v.13689a6.79783,6.79783,0,0,0,6.797,6.79927H144.4495a6.76017,6.76017,0,0,0,6.31529-4.3977C220.71776,228.26937,221.737,168.6696,221.737,168.03564Z"/><path class="cls-1" d="M218.596,106.00662a17.844,17.844,0,0,1,7.6958-1.8024C239.38612,104.20422,250,118.89453,250,137.0187c0,18.12192-10.61388,32.81409-23.70825,32.81409a17.81914,17.81914,0,0,1-7.6958-1.80426Z"/><path class="cls-1" d="M209.976,97.60617a13.85909,13.85909,0,0,1,6.63283-1.73881h.2813A14.0214,14.0214,0,0,1,230.912,109.88743v56.93a14.02267,14.02267,0,0,1-14.02194,14.02044h-.2813a13.88456,13.88456,0,0,1-6.63283-1.73881Z"/></svg>