<svg width="332" height="300" viewBox="0 0 332 300" fill="none" xmlns="http://www.w3.org/2000/svg">
<g id="Group">
<path id="XMLID 18" d="M112.248 28.5536L91.4581 7.40094C91.4581 7.40094 91.4581 7.32141 91.379 7.32141C82.6048 -1.50546 68.9295 -2.38019 59.2857 4.85626C59.2857 4.85626 59.2857 4.85626 59.2067 4.93576C58.3371 5.57196 57.4676 6.36716 56.6771 7.16235C56.6771 7.16235 56.5981 7.16238 56.5981 7.24188C53.8314 9.62753 51.2229 12.1722 48.6143 14.7964C-16.2048 80.004 -16.2048 185.767 48.6143 250.975C113.591 316.342 218.33 316.342 283.386 250.975C348.205 185.767 348.205 80.0835 283.386 14.7964C283.386 14.7964 283.307 14.7169 283.228 14.6374C273.663 5.01532 258.09 5.09482 248.526 14.7169C238.882 24.4185 238.882 40.0842 248.447 49.7063L248.526 49.7859C294.136 95.6697 294.136 170.022 248.526 215.827C202.915 261.71 129.006 261.71 83.4743 215.827C43.4762 175.589 38.6543 113.403 68.8505 67.7577C71.5381 63.6226 77.3876 63.1455 80.7867 66.6444L123.314 110.381C126.476 113.642 126.476 118.81 123.314 122.071L87.4267 158.253C77.9409 167.796 77.9409 183.382 87.5057 193.004C97.0705 202.626 112.564 202.626 122.05 193.083C122.366 192.765 144.973 170.022 145.29 169.625L123.077 192.05L157.621 157.299C160.862 154.038 166.158 154.038 169.32 157.299L204.496 192.845C214.061 202.467 229.633 202.467 239.277 192.845C248.842 183.223 248.842 167.557 239.277 157.855L204.022 122.23C200.86 118.969 200.86 113.721 204.022 110.54C204.022 110.54 238.25 76.1075 238.566 75.7894C248.13 66.1673 248.051 50.5811 238.408 40.8795C228.843 31.3369 213.587 31.1779 203.943 40.4819L182.442 62.1117L169.478 75.2327C166.237 78.4931 160.941 78.4931 157.779 75.2327L112.248 28.5536Z" fill="#EF5350"/>
<path id="XMLID 17" d="M69.1667 67.3598C69.4829 66.9621 103.552 20.0445 123.156 39.6863L135.013 51.6145L100.312 86.5244L80.9448 66.8031C80.9448 66.8031 78.8896 64.0994 74.542 64.3379C71.9334 64.656 70.2734 65.9284 69.1667 67.3598Z" fill="url(#paint0_linear)"/>
<path id="XMLID 16" d="M123.947 111.017C123.947 111.017 167.581 147.279 144.025 170.977L109.402 136.146L123.393 121.991C123.393 121.991 125.449 120.242 125.765 116.822C126.002 113.403 123.947 111.017 123.947 111.017Z" fill="url(#paint1_linear)"/>
<path id="XMLID 15" d="M203.389 121.514C203.389 121.514 159.755 85.2519 183.311 61.475L218.092 96.4644L204.022 110.619C204.022 110.619 201.967 112.369 201.65 115.868C201.492 119.208 203.389 121.514 203.389 121.514Z" fill="url(#paint2_linear)"/>
</g>
<defs>
<linearGradient id="paint0_linear" x1="124.105" y1="58.4388" x2="57.0109" y2="-43.961" gradientUnits="userSpaceOnUse">
<stop stop-opacity="0"/>
<stop offset="1"/>
</linearGradient>
<linearGradient id="paint1_linear" x1="115.805" y1="128.816" x2="233.07" y2="59.0149" gradientUnits="userSpaceOnUse">
<stop stop-opacity="0"/>
<stop offset="1"/>
</linearGradient>
<linearGradient id="paint2_linear" x1="196.828" y1="77.1263" x2="109.788" y2="130.849" gradientUnits="userSpaceOnUse">
<stop stop-opacity="0"/>
<stop offset="1"/>
</linearGradient>
</defs>
</svg>
