<svg id="Camada_1" data-name="Camada 1" xmlns="http://www.w3.org/2000/svg" viewBox="0 0 200 200"><defs><style>.cls-1{fill:#fff;fill-rule:evenodd;}</style></defs><title>Icon Whatsapp</title><path class="cls-1" d="M200,97.42788c0,53.79712-43.95582,97.41934-98.1781,97.41934a98.28888,98.28888,0,0,1-47.461-12.122L0,200.00013l17.71938-52.26674A96.40172,96.40172,0,0,1,3.63589,97.42788c0-53.80825,43.95557-97.428,98.186-97.428C156.04418-.00013,200,43.61963,200,97.42788ZM101.8219,15.51674c-45.52752,0-82.54987,36.73874-82.54987,81.91114a81.061,81.061,0,0,0,15.72227,48.025L24.686,175.86672l31.71651-10.07764a82.54473,82.54473,0,0,0,45.41937,13.54153c45.50848,0,82.542-36.74171,82.542-81.90273,0-45.1724-37.03349-81.91114-82.542-81.91114Zm49.57794,104.35009c-.60828-.99732-2.21391-1.59447-4.61119-2.789-2.40816-1.19158-14.24707-6.975-16.44983-7.76672-2.20277-.79439-3.8195-1.19431-5.414,1.19184-1.60561,2.38886-6.21951,7.76944-7.62764,9.36391-1.40021,1.5972-2.80015,1.79147-5.20834.59716-2.41114-1.19159-10.16969-3.72226-19.3584-11.84732a72.62939,72.62939,0,0,1-13.3918-16.53893c-1.397-2.38614-.13882-3.67771,1.053-4.8693,1.08617-1.075,2.41089-2.789,3.61386-4.17785a16.37277,16.37277,0,0,0,2.40819-3.99423,4.33715,4.33715,0,0,0-.20541-4.1781c-.59741-1.19159-5.414-12.94437-7.42225-17.73052-1.99439-4.772-4.00289-4.59386-5.414-4.59386a34.6645,34.6645,0,0,0-3.99769.41626s-4.8245.59715-7.02727,2.986c-2.20275,2.38614-8.41956,8.16936-8.41956,19.911,0,11.75007,8.6168,23.1111,9.81952,24.69444,1.20571,1.59744,16.6446,26.49728,41.11383,36.05843,24.46948,9.55843,24.46948,6.36948,28.88343,5.9666,4.40553-.38878,14.23618-5.77208,16.24443-11.3499s2.00825-10.361,1.4111-11.3499Zm0,0"/></svg>