<svg id="Camada_1" data-name="Camada 1" xmlns="http://www.w3.org/2000/svg" viewBox="0 0 200 200"><defs><style>.cls-1{fill:#4f4f4f;}</style></defs><title>Icon Retirada</title><path class="cls-1" d="M191.05569,47.68163a5.18883,5.18883,0,0,0-.50146-2.21475,4.84144,4.84144,0,0,0-3.38482-2.67442L102.04762,1.50609a5.04976,5.04976,0,0,0-4.38772,0L11.70233,43.16855a5.03256,5.03256,0,0,0-2.84157,4.34594V152.27657a4.98018,4.98018,0,0,0,2.84157,4.51308l85.95756,41.66247c.04179,0,.04179,0,.08357.04179a1.48445,1.48445,0,0,1,.37609.16715c.04179,0,.08358.04179.16715.04179l.37609.12536c.04179,0,.08357.04179.12536.04179.12537.04179.29252.04179.41788.08358h.12537c.16714,0,.37608.04179.54324.04179a2.3826,2.3826,0,0,0,.54324-.04179h.12537a1.48473,1.48473,0,0,0,.41788-.08358c.04179,0,.08357-.04179.12536-.04179l.37609-.12536c.04179,0,.08357-.04179.16715-.04179a1.48439,1.48439,0,0,0,.37608-.16715c.0418,0,.0418,0,.08358-.04179l86.20828-41.78783a5.05362,5.05362,0,0,0,2.84157-4.51308V47.807C191.05569,47.76521,191.05569,47.72342,191.05569,47.68163ZM99.83286,11.577l74.54948,36.14647L146.92775,61.05374,72.37826,24.90727Zm0,72.293L25.28338,47.72342,60.8866,30.46505l74.5495,36.14647Zm-80.943-28.08142L94.81832,92.60356v93.31221L18.88984,149.10069ZM104.8474,185.91577V92.60355l35.645-17.30017V99.70747a5.01454,5.01454,0,0,0,10.02908,0V70.4142l30.50512-14.79288v93.31222Z"/></svg>