<svg id="Camada_1" data-name="Camada 1" xmlns="http://www.w3.org/2000/svg" viewBox="0 0 200 200"><defs><style>.cls-1,.cls-2{fill:#ef5350;}.cls-2{fill-rule:evenodd;}</style></defs><title>Icon de informação</title><path class="cls-1" d="M100,200A99.38741,99.38741,0,0,1,0,100,99.38741,99.38741,0,0,1,100,0,99.38741,99.38741,0,0,1,200,100,99.38741,99.38741,0,0,1,100,200Zm0-185.712A85.712,85.712,0,1,0,185.712,100,85.96088,85.96088,0,0,0,100,14.288Z"/><path class="cls-2" d="M90,90a11.272,11.272,0,0,1,11.1097-11.432q.16114-.00231.3223,0c7.136,0,11.424,4.288,11.424,11.432v54.288a11.264,11.264,0,0,1-11.1017,11.424q-.16115.00231-.3223,0c-7.144,0-11.432-4.28-11.432-11.424Z"/><path class="cls-2" d="M90,57.144a11.272,11.272,0,0,1,11.1097-11.432q.16114-.00231.3223,0c7.136,0,11.424,4.288,11.424,11.432s-4.288,11.424-11.424,11.424A11.264,11.264,0,0,1,90.00012,57.47443Q89.99763,57.30922,90,57.144Z"/></svg>