<svg id="Camada_1" data-name="Camada 1" xmlns="http://www.w3.org/2000/svg" xmlns:xlink="http://www.w3.org/1999/xlink" viewBox="0 0 48 48"><defs><style>.cls-1{fill:#009280;}.cls-2{fill:url(#Gradiente_sem_nome_8);}.cls-3{fill:url(#Gradiente_sem_nome_11);}</style><linearGradient id="Gradiente_sem_nome_8" x1="31.75469" y1="8.82221" x2="35.16885" y2="6.04425" gradientUnits="userSpaceOnUse"><stop offset="0" stop-opacity="0"/><stop offset="1"/></linearGradient><linearGradient id="Gradiente_sem_nome_11" x1="22.3339" y1="12.7845" x2="27.0472" y2="17.95609" xlink:href="#Gradiente_sem_nome_8"/></defs><title>Logo-marca-vertical</title><g id="_Grupo_" data-name="&lt;Grupo&gt;"><path id="_Caminho_" data-name="&lt;Caminho&gt;" class="cls-1" d="M25.48394,28.81219a14.40567,14.40567,0,0,1-10.1864-24.5924A14.40467,14.40467,0,0,1,35.67025,4.2197c.16655.16655.33374.34235.497.52269.01146.01269.02352.02511.0359.0369l.02688.0243c.02357.02194.0471.04443.07.06727a2.12522,2.12522,0,0,1-.00032,3.009L26.5879,17.59083a2.12667,2.12667,0,0,1-3.00817.00028L20.365,14.37736a2.12795,2.12795,0,0,1,3.00962-3.00912l1.21614,1.21993a.69917.69917,0,0,0,.49241.20683h0a.69906.69906,0,0,0,.49236-.20674L31.156,7.00647a.6974.6974,0,0,0-.10976-1.07527A10.13633,10.13633,0,1,0,32.65074,21.573a2.13482,2.13482,0,0,1,3.02676,3.01138l-.02031.02121A14.30835,14.30835,0,0,1,25.48394,28.81219Z"/><path id="_Caminho_2" data-name="&lt;Caminho&gt;" class="cls-2" d="M31.04622,5.9312s4.03341,3.16854,2.46348,4.73848l-1.03049,1.03049L29.471,8.69191l1.68523-1.68522a.69782.69782,0,0,0-.11-1.07549Z"/><path id="_Caminho_3" data-name="&lt;Caminho&gt;" class="cls-3" d="M25.57561,12.58826s-3.16519,3.83449-5.21058,1.7891l3.00962-3.00912,1.21614,1.21993a.68967.68967,0,0,0,.98482.00009Z"/></g><g id="_Grupo_2" data-name="&lt;Grupo&gt;"><path id="_Caminho_composto_" data-name="&lt;Caminho composto&gt;" class="cls-1" d="M8.64434,33.70759c-.95908,0-1.54579.85754-1.54579,1.91815,0,1.0719.57548,2.031,1.53455,2.031a1.69471,1.69471,0,0,0,.97576-.22654.48323.48323,0,0,1,.69778.19691.33273.33273,0,0,1,.0302.13116c0,.48519-1.1509.7899-1.66991.7899a2.69636,2.69636,0,0,1-2.47105-2.95628,2.46914,2.46914,0,0,1,2.48234-2.68535,2.72861,2.72861,0,0,1,1.39825.26783.36484.36484,0,0,1,.17239.406l-.00252.00952a.41893.41893,0,0,1-.58425.26067A2.516,2.516,0,0,0,8.64434,33.70759Z"/><path id="_Caminho_composto_2" data-name="&lt;Caminho composto&gt;" class="cls-1" d="M13.936,32.90651a2.60491,2.60491,0,0,1,2.65152,2.67417,2.66836,2.66836,0,1,1-5.30309,0A2.6116,2.6116,0,0,1,13.936,32.90651Zm-.03388,4.818c1.17349,0,1.80532-.756,1.80532-2.11a1.7877,1.7877,0,0,0-1.80532-1.90685,1.82232,1.82232,0,0,0-1.72632,1.90685C12.17576,36.84435,12.85277,37.72448,13.90208,37.72448Z"/><path id="_Caminho_composto_3" data-name="&lt;Caminho composto&gt;" class="cls-1" d="M18.01445,38.54814h0a.457.457,0,0,1-.45695-.45695V33.36346a.45694.45694,0,0,1,.46259-.45691h0a.45693.45693,0,0,1,.45129.45691v.47131a.02342.02342,0,0,0,.04432.01054,1.69391,1.69391,0,0,1,1.58048-.9388,1.6089,1.6089,0,0,1,1.63,1.13816.06958.06958,0,0,0,.1243.00545,2.03025,2.03025,0,0,1,1.96916-1.14361c1.04943,0,2.189.40613,2.189,3.09159v2.09309a.457.457,0,0,1-.45695.45695h-.0113a.457.457,0,0,1-.457-.45695V35.62574c0-1.02673-.34977-1.794-1.39919-1.794q-.03855,0-.0797.00231a1.64576,1.64576,0,0,0-1.40537,1.748c.00706.12036.00748,1.70825.00723,2.50979a.4565.4565,0,0,1-.457.45629h-.00025a.457.457,0,0,1-.457-.45695V35.62574c0-1.02673-.28212-1.794-1.3202-1.794-.02961,0-.06.001-.0911.00293a1.536,1.536,0,0,0-1.40957,1.54768v2.70887A.457.457,0,0,1,18.01445,38.54814Z"/><path id="_Caminho_composto_4" data-name="&lt;Caminho composto&gt;" class="cls-1" d="M27.238,33.7187a.57033.57033,0,0,1,.39778-.5453,6.319,6.319,0,0,1,1.88155-.26689,2.34729,2.34729,0,0,1,2.6177,2.58381,2.82439,2.82439,0,0,1-2.91111,3.05782,4.30436,4.30436,0,0,1-1.038-.13541v2.18892a.47394.47394,0,0,1-.474.47394h0a.474.474,0,0,1-.47395-.47394Zm1.99721,3.91543c.835,0,1.86168-.36107,1.86168-2.14381,0-1.33143-.72213-1.78273-1.636-1.78273a4.0749,4.0749,0,0,0-.84721.08159.56963.56963,0,0,0-.44766.56246l.01991,3.1133A3.56861,3.56861,0,0,0,29.23518,37.63413Z"/><path id="_Caminho_composto_5" data-name="&lt;Caminho composto&gt;" class="cls-1" d="M34.13162,35.0617v3.04078a.44566.44566,0,0,1-.44566.44566h0a.44566.44566,0,0,1-.44565-.44565V33.21111s.04506-.21436.50777-.21436c.33848,0,.38354.1693.38354.1693v.77848a1.6156,1.6156,0,0,1,1.55709-1.038c.36106,0,1.19613.282,1.19613.598,0,.22566-.19188.60931-.3273.60931h-.01129a2.07922,2.07922,0,0,0-.92519-.29342,1.89809,1.89809,0,0,0-.96374.27785A1.13132,1.13132,0,0,0,34.13162,35.0617Z"/><path id="_Caminho_composto_6" data-name="&lt;Caminho composto&gt;" class="cls-1" d="M39.9875,35.86268c-.78978,0-1.54579-.04506-1.54579-.04506,0,1.42167.82366,1.91815,1.73767,1.91815a3.10485,3.10485,0,0,0,.88373-.13664.41312.41312,0,0,1,.4694.18656l.0055.00913a.41866.41866,0,0,1-.25754.62161,6.41543,6.41543,0,0,1-1.38321.13171c-1.82791,0-2.392-1.44426-2.392-3.02393s.72213-2.629,2.189-2.629c1.64732,0,2.10992.64307,2.10992,1.97451q0,.32171-.03389.711C41.74765,35.80633,40.85634,35.86268,39.9875,35.86268Zm0-.72213c.50777,0,.94778-.01129.94778-.07894,0-.98166-.0113-1.45555-1.21861-1.45555-.98155,0-1.26367.80107-1.26367,1.50061C38.453,35.10667,39.288,35.14055,39.9875,35.14055Z"/></g><g id="_Grupo_3" data-name="&lt;Grupo&gt;"><path id="_Caminho_composto_7" data-name="&lt;Caminho composto&gt;" class="cls-1" d="M14.2865,43.15945c-.95908,0-1.54579.85754-1.54579,1.91815,0,1.0719.57548,2.031,1.53455,2.031A1.69469,1.69469,0,0,0,15.251,46.882a.48323.48323,0,0,1,.69778.19691.33274.33274,0,0,1,.0302.13117c0,.48518-1.1509.78989-1.66991.78989a2.69635,2.69635,0,0,1-2.471-2.95628,2.46913,2.46913,0,0,1,2.48233-2.68535,2.72859,2.72859,0,0,1,1.39825.26783.36484.36484,0,0,1,.17239.406l-.00252.00952a.41893.41893,0,0,1-.58425.26067A2.516,2.516,0,0,0,14.2865,43.15945Z"/><path id="_Caminho_composto_8" data-name="&lt;Caminho composto&gt;" class="cls-1" d="M23.43167,44.49083v3.04078a.44565.44565,0,0,1-.44566.44565h0a.44565.44565,0,0,1-.44565-.44565V42.64023s.04506-.21435.50777-.21435c.33848,0,.38354.16929.38354.16929v.77849a1.61559,1.61559,0,0,1,1.55709-1.038c.36106,0,1.19613.282,1.19613.598,0,.22565-.19188.6093-.3273.6093h-.01129a2.07927,2.07927,0,0,0-.92519-.29341,1.89809,1.89809,0,0,0-.96374.27785A1.13131,1.13131,0,0,0,23.43167,44.49083Z"/><path id="_Caminho_composto_9" data-name="&lt;Caminho composto&gt;" class="cls-1" d="M19.32863,45.29833c-.79461,0-1.55518-.04541-1.55518-.04541,0,1.43032.82869,1.92976,1.74816,1.92976a3.12349,3.12349,0,0,0,.88911-.13742.4156.4156,0,0,1,.47222.18766l.00553.00919a.42119.42119,0,0,1-.25907.62537A6.45315,6.45315,0,0,1,19.23781,48c-1.83894,0-2.40654-1.453-2.40654-3.04221s.7265-2.64489,2.20219-2.64489c1.65734,0,2.12274.64705,2.12274,1.98647q0,.32352-.034.7152C21.09946,45.24155,20.20269,45.29833,19.32863,45.29833Zm0-.72649c.51081,0,.95351-.01138.95351-.07945,0-.98759-.01137-1.46436-1.226-1.46436-.98755,0-1.27135.80594-1.27135,1.50977C17.78482,44.5378,18.6248,44.57184,19.32863,44.57184Z"/><path id="_Caminho_composto_10" data-name="&lt;Caminho composto&gt;" class="cls-1" d="M28.48869,45.99075c0,.96492.09082,1.30546,1.192,1.30546.05663,0,.09082.11349.09082.24972,0,.19294-.05678.42-.15905.42h-.24973c-.36313,0-.98758-.02266-1.20326-.24972,0,0-.57882-.36328-.57882-1.70271V43.47072c-.04549,0-.13631.01137-.23842.01137h-.0068a.44133.44133,0,0,1-.44137-.43577l-.0001-.00812a.44783.44783,0,0,1,.44995-.45292l.02106,0a.9297.9297,0,0,0,.21568-.01137V41.785a.44838.44838,0,0,1,.44838-.44838h0a.44839.44839,0,0,1,.44839.44838V42.574c.034-.01138.20423,0,.41991,0,.2095,0,.37878-.00581.51553-.0106a.44951.44951,0,0,1,.465.44283h0a.44933.44933,0,0,1-.4551.45662c-.14868-.00193-.31477-.00346-.46868-.00346-.20424,0-.39733,0-.4767.01137Z"/><path id="_Caminho_composto_11" data-name="&lt;Caminho composto&gt;" class="cls-1" d="M33.4944,42.32427a2.62059,2.62059,0,0,1,2.66755,2.6903,2.68448,2.68448,0,1,1-5.3351,0A2.62736,2.62736,0,0,1,33.4944,42.32427Zm-.034,4.847c1.18053,0,1.81628-.76053,1.81628-2.1227a1.79855,1.79855,0,0,0-1.81628-1.91839,1.83329,1.83329,0,0,0-1.73675,1.91839C31.72361,46.28592,32.4047,47.17131,33.46036,47.17131Z"/></g></svg>