<svg id="Camada_1" data-name="Camada 1" xmlns="http://www.w3.org/2000/svg" viewBox="0 0 200 200"><defs><style>.cls-1{fill:#00695c;}</style></defs><title>meus pedidos</title><path class="cls-1" d="M98.175,76.8375a6.26945,6.26945,0,0,0-8.85-.0125L68.75,97.4125,60.675,89.325a6.24906,6.24906,0,1,0-8.8375,8.83751l12.5,12.5A6.18871,6.18871,0,0,0,68.75,112.5a6.27768,6.27768,0,0,0,4.425-1.825l25-25A6.25435,6.25435,0,0,0,98.175,76.8375Z"/><path class="cls-1" d="M98.175,126.8375a6.26945,6.26945,0,0,0-8.85-.0125L68.75,147.4125l-8.075-8.075a6.24906,6.24906,0,0,0-8.8375,8.8375l12.5,12.5a6.26192,6.26192,0,0,0,8.83751,0l25-25A6.25434,6.25434,0,0,0,98.175,126.8375Z"/><path class="cls-1" d="M143.75,87.5h-25a6.25,6.25,0,0,0,0,12.5h25a6.25,6.25,0,0,0,0-12.5Z"/><path class="cls-1" d="M143.75,137.5h-25a6.25,6.25,0,0,0,0,12.5h25a6.25,6.25,0,0,0,0-12.5Z"/><path class="cls-1" d="M162.5,25h-25V18.75a6.25228,6.25228,0,0,0-6.25-6.25H117.6875a18.76391,18.76391,0,0,0-35.375,0H68.75a6.25228,6.25228,0,0,0-6.25,6.25V25h-25A12.52062,12.52062,0,0,0,25,37.5v150A12.52062,12.52062,0,0,0,37.5,200h125A12.52062,12.52062,0,0,0,175,187.5V37.5A12.52062,12.52062,0,0,0,162.5,25ZM75,25H87.5a6.25228,6.25228,0,0,0,6.25-6.25,6.25,6.25,0,0,1,12.5,0A6.25228,6.25228,0,0,0,112.5,25H125V37.5H75Zm87.5,162.5H37.5V37.5h25v6.25A6.25228,6.25228,0,0,0,68.75,50h62.5a6.25228,6.25228,0,0,0,6.25-6.25V37.5h25Z"/></svg>