<?xml version="1.0" encoding="utf-8"?>
<!-- Generator: Adobe Illustrator 22.0.1, SVG Export Plug-In . SVG Version: 6.00 Build 0)  -->
<svg version="1.1" id="Camada_1" xmlns="http://www.w3.org/2000/svg" xmlns:xlink="http://www.w3.org/1999/xlink" x="0px" y="0px"
	 viewBox="0 0 32 34" style="enable-background:new 0 0 32 34;" xml:space="preserve">
<style type="text/css">
	.st0{fill:#00695C;}
</style>
<g>
	<path class="st0" d="M22.5,22.8c-0.2,0-0.4-0.1-0.6-0.3c-1.5-1.8-3.7-2.8-6-2.8c-2.3,0-4.4,1-5.9,2.7c-0.3,0.3-0.8,0.3-1.1,0.1
		c-0.3-0.3-0.4-0.8-0.1-1.1c1.8-2,4.3-3.2,7-3.2c2.8,0,5.4,1.2,7.2,3.4c0.3,0.3,0.2,0.8-0.1,1.1C22.9,22.7,22.7,22.8,22.5,22.8
		L22.5,22.8z M22.5,22.8"/>
	<path class="st0" d="M27,17.5c-0.2,0-0.4-0.1-0.6-0.3c-2.7-3-6.5-4.7-10.5-4.7c-3.9,0-7.7,1.7-10.4,4.6c-0.3,0.3-0.8,0.3-1.1,0
		c-0.3-0.3-0.3-0.8,0-1.1c3-3.2,7.2-5.1,11.5-5.1c4.4,0,8.7,1.9,11.7,5.2c0.3,0.3,0.3,0.8-0.1,1.1C27.4,17.4,27.2,17.5,27,17.5
		L27,17.5z M27,17.5"/>
	<path class="st0" d="M31.2,12.5c-0.2,0-0.4-0.1-0.6-0.2c-3.8-4.1-9.2-6.5-14.8-6.5C10.3,5.8,5.1,8,1.3,12.1c-0.3,0.3-0.8,0.3-1.1,0
		c-0.3-0.3-0.3-0.8,0-1.1c4.1-4.4,9.7-6.8,15.7-6.8c6,0,11.8,2.5,15.9,6.9c0.3,0.3,0.3,0.8,0,1.1C31.6,12.4,31.4,12.5,31.2,12.5
		L31.2,12.5z M31.2,12.5"/>
	<path class="st0" d="M16,29.7c-1.5,0-2.8-1.2-2.8-2.8c0-1.5,1.2-2.8,2.8-2.8c1.5,0,2.8,1.2,2.8,2.8C18.8,28.5,17.5,29.7,16,29.7
		L16,29.7z M16,25.7c-0.7,0-1.3,0.6-1.3,1.3c0,0.7,0.6,1.3,1.3,1.3c0.7,0,1.3-0.6,1.3-1.3C17.3,26.2,16.7,25.7,16,25.7L16,25.7z
		 M16,25.7"/>
</g>
</svg>
