<svg id="Camada_1" data-name="Camada 1" xmlns="http://www.w3.org/2000/svg" viewBox="0 0 250 250"><defs><style>.cls-1{fill:#4f4f4f;}</style></defs><title>Calculadora</title><path class="cls-1" d="M190.56111,2.22949H59.437c-10.63666,0-19.28318,9.18331-19.28318,20.46208V227.30965c0,11.27875,8.64652,20.46209,19.28318,20.46209H190.56111c10.63666,0,19.28318-9.18331,19.28318-20.46164V22.69157C209.84429,11.4128,201.19777,2.22949,190.56111,2.22949ZM202.13093,227.3101c0,6.76872-5.19108,12.27716-11.56982,12.27716H59.437c-6.37875,0-11.56983-5.50844-11.56983-12.27716V22.69157c0-6.76871,5.19108-12.27716,11.56983-12.27716H190.56111c6.37874,0,11.56982,5.50845,11.56982,12.27716Z"/><path class="cls-1" d="M190.56892,250H59.43108c-11.8584,0-21.50856-10.18048-21.50856-22.69092V22.69092C37.92252,10.18048,47.57268,0,59.43108,0H190.56892c11.8584,0,21.50856,10.18048,21.50856,22.69092V227.30908C212.07748,239.81952,202.42732,250,190.56892,250ZM59.43108,4.45124c-9.40674,0-17.05731,8.18091-17.05731,18.23968V227.30908c0,10.05877,7.65057,18.23968,17.05731,18.23968H190.56892c9.40674,0,17.05731-8.18091,17.05731-18.23968V22.69092c0-10.05877-7.65057-18.23968-17.05731-18.23968ZM190.56892,241.8104H59.43108c-7.59842,0-13.78843-6.503-13.78843-14.50132V22.69092c0-7.99833,6.19-14.50132,13.78843-14.50132H190.56892c7.59842,0,13.78843,6.503,13.78843,14.50132V227.30908C204.35735,235.30741,198.16734,241.8104,190.56892,241.8104ZM59.43108,12.64084c-5.14676,0-9.33719,4.5121-9.33719,10.05008V227.30908c0,5.538,4.19043,10.05008,9.33719,10.05008H190.56892c5.14676,0,9.33719-4.5121,9.33719-10.05008V22.69092c0-5.538-4.19043-10.05008-9.33719-10.05008Z"/><path class="cls-1" d="M90.29,92.26183H67.1504a3.98108,3.98108,0,0,0-3.85647,4.09224v24.55432a3.98111,3.98111,0,0,0,3.85647,4.09224H90.28961a3.98144,3.98144,0,0,0,3.85689-4.09224V96.35406A3.98109,3.98109,0,0,0,90.29,92.26183Zm-3.8569,24.55386H71.00686v-16.3694H86.43314Z"/><path class="cls-1" d="M136.56889,92.26183H113.42925a3.98108,3.98108,0,0,0-3.85646,4.09224v24.55432a3.9811,3.9811,0,0,0,3.85646,4.09224h23.13964a3.98109,3.98109,0,0,0,3.85647-4.09224V96.35406A3.98109,3.98109,0,0,0,136.56889,92.26183ZM132.712,116.81569H117.28571v-16.3694H132.712Z"/><path class="cls-1" d="M182.84818,92.26183H159.70854a3.98109,3.98109,0,0,0-3.85647,4.09224v24.55432a3.98111,3.98111,0,0,0,3.85647,4.09224h23.13964a3.98138,3.98138,0,0,0,3.85647-4.09224V96.35406A3.98108,3.98108,0,0,0,182.84818,92.26183Zm-3.85689,24.55386H163.565v-16.3694h15.42629Z"/><path class="cls-1" d="M90.29,141.37046H67.1504a3.98109,3.98109,0,0,0-3.85647,4.09224V170.017a3.9811,3.9811,0,0,0,3.85647,4.09223H90.28961A3.98143,3.98143,0,0,0,94.1465,170.017V145.4627A3.98109,3.98109,0,0,0,90.29,141.37046Zm-3.8569,24.55386H71.00686V149.55493H86.43314Z"/><path class="cls-1" d="M136.56889,141.37046H113.42925a3.98109,3.98109,0,0,0-3.85646,4.09224V170.017a3.98109,3.98109,0,0,0,3.85646,4.09223h23.13964a3.98108,3.98108,0,0,0,3.85647-4.09223V145.4627A3.98109,3.98109,0,0,0,136.56889,141.37046ZM132.712,165.92432H117.28571V149.55493H132.712Z"/><path class="cls-1" d="M182.84818,141.37046H159.70854a3.98109,3.98109,0,0,0-3.85647,4.09224V170.017a3.9811,3.9811,0,0,0,3.85647,4.09223h23.13964a3.98137,3.98137,0,0,0,3.85647-4.09223V145.4627A3.98109,3.98109,0,0,0,182.84818,141.37046Zm-3.85689,24.55386H163.565V149.55493h15.42629Z"/><path class="cls-1" d="M90.29,190.47863H67.1504a3.98109,3.98109,0,0,0-3.85647,4.09224v24.55431a3.9811,3.9811,0,0,0,3.85647,4.09224H90.28961a3.98115,3.98115,0,0,0,3.85689-4.09224V194.57087A3.98109,3.98109,0,0,0,90.29,190.47863ZM86.43314,215.033H71.00686v-16.3694H86.43314Z"/><path class="cls-1" d="M136.56889,190.47863H113.42925a3.98109,3.98109,0,0,0-3.85646,4.09224v24.55431a3.98109,3.98109,0,0,0,3.85646,4.09224h23.13964a3.98081,3.98081,0,0,0,3.85647-4.09224V194.57087A3.98109,3.98109,0,0,0,136.56889,190.47863ZM132.712,215.033H117.28571v-16.3694H132.712Z"/><path class="cls-1" d="M182.84818,190.47863H159.70854a3.98109,3.98109,0,0,0-3.85647,4.09224v24.55431a3.9811,3.9811,0,0,0,3.85647,4.09224h23.13964a3.98109,3.98109,0,0,0,3.85647-4.09224V194.57087A3.98109,3.98109,0,0,0,182.84818,190.47863ZM178.99129,215.033H163.565v-16.3694h15.42629Z"/><path class="cls-1" d="M182.84818,26.7838H67.1504A3.98108,3.98108,0,0,0,63.29393,30.876V71.79975A3.98109,3.98109,0,0,0,67.1504,75.892H182.84819a3.98108,3.98108,0,0,0,3.85647-4.09223V30.876A3.9811,3.9811,0,0,0,182.84818,26.7838Zm-3.85689,40.92371H71.00686V34.96827H178.99129Z"/></svg>