<svg id="Camada_1" data-name="Camada 1" xmlns="http://www.w3.org/2000/svg" viewBox="0 0 48 48"><defs><style>.cls-1{fill:#00695c;}.cls-2{fill:#00695b;}</style></defs><title>cupom</title><path class="cls-1" d="M22.82,48a4.84,4.84,0,0,1-3.45-1.43L1.43,28.63A4.86,4.86,0,0,1,0,25.18a4.92,4.92,0,0,1,1.43-3.45l20.3-20.3A4.87,4.87,0,0,1,25.41,0l17.13.8a4.85,4.85,0,0,1,4.65,4.65h0L48,22.59a4.85,4.85,0,0,1-1.42,3.68l-20.3,20.3A4.86,4.86,0,0,1,22.82,48ZM25.18,3.12a1.76,1.76,0,0,0-1.25.51L3.63,23.94a1.74,1.74,0,0,0-.51,1.24,1.76,1.76,0,0,0,.51,1.25L21.57,44.37a1.81,1.81,0,0,0,2.5,0l20.3-20.3a1.79,1.79,0,0,0,.51-1.34L44.08,5.6A1.76,1.76,0,0,0,42.4,3.92l-17.14-.8Z"/><path class="cls-2" d="M34.18,19.4a5.58,5.58,0,1,1,4-1.63h0A5.56,5.56,0,0,1,34.18,19.4Zm0-9.12a3.54,3.54,0,1,0,2.5,1A3.52,3.52,0,0,0,34.18,10.28Z"/></svg>