<svg id="Camada_1" data-name="Camada 1" xmlns="http://www.w3.org/2000/svg" viewBox="0 0 250 250"><defs><style>.cls-1{fill:#00695c;}</style></defs><title>Minha sacola</title><path class="cls-1" d="M179.69,250H70.31A70.39,70.39,0,0,1,0,179.69V70.31A70.39,70.39,0,0,1,70.31,0H179.69A70.39,70.39,0,0,1,250,70.31V179.69A70.39,70.39,0,0,1,179.69,250ZM70.31,15.63A54.74,54.74,0,0,0,15.63,70.31V179.69a54.75,54.75,0,0,0,54.68,54.69H179.69a54.76,54.76,0,0,0,54.69-54.69V70.31a54.75,54.75,0,0,0-54.69-54.68Z"/><path class="cls-1" d="M78.13,109.38A31.67,31.67,0,0,1,46.88,78.13,31.67,31.67,0,0,1,78.13,46.88a31.67,31.67,0,0,1,31.25,31.25A31.68,31.68,0,0,1,78.13,109.38Zm0-46.88C70,62.5,62.5,70,62.5,78.13S70,93.75,78.13,93.75,93.75,86.3,93.75,78.13,86.3,62.5,78.13,62.5Z"/><path class="cls-1" d="M189.06,85.94h-57.8a7.82,7.82,0,1,1,0-15.63h57.8a7.82,7.82,0,0,1,0,15.63Z"/><path class="cls-1" d="M189.06,179.69h-57.8a7.82,7.82,0,1,1,0-15.63h57.8a7.82,7.82,0,0,1,0,15.63Z"/><path class="cls-1" d="M78.13,203.13a31.25,31.25,0,0,1,0-62.5,31.25,31.25,0,0,1,0,62.5Zm0-46.88c-8.18,0-15.63,7.45-15.63,15.63S70,187.5,78.13,187.5s15.62-7.45,15.62-15.62S86.3,156.25,78.13,156.25Z"/></svg>