<svg id="Camada_1" data-name="Camada 1" xmlns="http://www.w3.org/2000/svg" viewBox="0 0 250 250"><defs><style>.cls-1{fill:#00695c;}</style></defs><title>Politica de privacidade</title><path class="cls-1" d="M125,138.88A22.92,22.92,0,0,0,101.85,162c0,7.4,3.71,13.88,9.26,18.51v18.52a13.89,13.89,0,1,0,27.78,0V180.54c5.55-4.63,9.26-11.11,9.26-18.51A22.92,22.92,0,0,0,125,138.88ZM129.63,175v24.07a4.63,4.63,0,0,1-9.26,0V175a13.93,13.93,0,0,1-9.26-13,13.89,13.89,0,1,1,27.78,0A13.08,13.08,0,0,1,129.63,175Z"/><path class="cls-1" d="M194.44,101.84V69.44C194.44,31.48,163,0,125,0S55.56,31.48,55.56,69.44v32.41a27.28,27.28,0,0,0-27.78,27.77v92.59A27.28,27.28,0,0,0,55.56,250H194.44a27.28,27.28,0,0,0,27.78-27.77V129.62A27.86,27.86,0,0,0,194.44,101.84ZM64.82,69.44a60.18,60.18,0,0,1,120.36,0v32.41h-9.26V69.44c0-27.78-23.14-50.92-50.92-50.92S74.08,41.66,74.08,69.44v32.41H64.82Zm101.84,0v32.41H83.34V69.44a41.66,41.66,0,0,1,83.32,0ZM213,222.21a18.57,18.57,0,0,1-18.52,18.51H55.56A18.57,18.57,0,0,1,37,222.21V129.62A18.58,18.58,0,0,1,55.56,111.1H194.44A18.58,18.58,0,0,1,213,129.62Z"/></svg>