<?xml version="1.0" encoding="utf-8"?>
<!-- Generator: Adobe Illustrator 22.0.1, SVG Export Plug-In . SVG Version: 6.00 Build 0)  -->
<svg version="1.1" id="Camada_1" xmlns="http://www.w3.org/2000/svg" xmlns:xlink="http://www.w3.org/1999/xlink" x="0px" y="0px"
	 viewBox="0 0 32 34" style="enable-background:new 0 0 32 34;" xml:space="preserve">
<style type="text/css">
	.st0{fill:none;stroke:#00695C;stroke-linecap:round;stroke-linejoin:round;}
	.st1{fill:#00695C;}
</style>
<g>
	<g id="Oval">
		<path class="st1" d="M16,33C7.2,33,0,25.8,0,17C0,8.2,7.2,1,16,1c8.8,0,16,7.2,16,16C32,25.8,24.8,33,16,33z M16,2.4
			C7.9,2.4,1.4,8.9,1.4,17c0,8.1,6.6,14.6,14.6,14.6c8.1,0,14.6-6.6,14.6-14.6C30.6,8.9,24.1,2.4,16,2.4z"/>
	</g>
	<g>
		<g id="Line">
			<path class="st1" d="M16,25.3c-0.4,0-0.7-0.3-0.7-0.7V14.2c0-0.4,0.3-0.7,0.7-0.7c0.4,0,0.7,0.3,0.7,0.7v10.4
				C16.7,25,16.4,25.3,16,25.3z"/>
		</g>
		<g id="Oval_Copy_1_">
			<path class="st1" d="M16,11.7c0.6,0,1.1-0.5,1.1-1.1c0-0.6-0.5-1.1-1.1-1.1c-0.6,0-1.1,0.5-1.1,1.1C14.9,11.2,15.4,11.7,16,11.7z
				"/>
		</g>
	</g>
</g>
</svg>
