<svg id="Camada_1" data-name="Camada 1" xmlns="http://www.w3.org/2000/svg" viewBox="0 0 250 250"><defs><style>.cls-1{fill:#4f4f4f;}</style></defs><title>produto</title><path class="cls-1" d="M122.73793,96.29023a7.77094,7.77094,0,0,0-10.96953-.0155L86.26582,121.79281l-10.00891-10.0244a7.74567,7.74567,0,1,0-10.954,10.954l15.49367,15.49367a7.67086,7.67086,0,0,0,5.46927,2.27758,7.78113,7.78113,0,0,0,5.48476-2.26208l30.98734-30.98734A7.75223,7.75223,0,0,0,122.73793,96.29023Z"/><path class="cls-1" d="M122.73793,158.26492a7.771,7.771,0,0,0-10.96953-.0155L86.26582,183.7675,76.25691,173.75859a7.74566,7.74566,0,1,0-10.954,10.954l15.49367,15.49367a7.76161,7.76161,0,0,0,10.954,0l30.98734-30.98734A7.75221,7.75221,0,0,0,122.73793,158.26492Z"/><path class="cls-1" d="M179.22785,109.50633H148.24051a7.74684,7.74684,0,1,0,0,15.49367h30.98734a7.74684,7.74684,0,0,0,0-15.49367Z"/><path class="cls-1" d="M179.22785,171.481H148.24051a7.74683,7.74683,0,1,0,0,15.49367h30.98734a7.74684,7.74684,0,0,0,0-15.49367Z"/><path class="cls-1" d="M202.46835,32.038H171.481V24.29114a7.74966,7.74966,0,0,0-7.74683-7.74684H146.92354a23.25774,23.25774,0,0,0-43.84708,0H86.26582A7.74966,7.74966,0,0,0,78.519,24.29114V32.038H47.53165A15.51923,15.51923,0,0,0,32.038,47.53165V233.4557a15.51924,15.51924,0,0,0,15.49368,15.49367h154.9367A15.51925,15.51925,0,0,0,217.962,233.4557V47.53165A15.51924,15.51924,0,0,0,202.46835,32.038Zm-108.45569,0h15.49367a7.74966,7.74966,0,0,0,7.74683-7.74683,7.74684,7.74684,0,1,1,15.49368,0,7.74966,7.74966,0,0,0,7.74683,7.74683h15.49367V47.53165H94.01266ZM202.46835,233.4557H47.53165V47.53165H78.519v7.74683a7.74966,7.74966,0,0,0,7.74683,7.74684h77.46836a7.74966,7.74966,0,0,0,7.74683-7.74684V47.53165h30.98734Z"/></svg>