<svg id="Camada_1" data-name="Camada 1" xmlns="http://www.w3.org/2000/svg" viewBox="0 0 250 250"><defs><style>.cls-1{fill:#fff;}.cls-2{fill:#00695c;}</style></defs><title>Profile femenino</title><rect class="cls-1" width="250" height="250"/><path class="cls-2" d="M125,0A125,125,0,1,0,250,125,125.14,125.14,0,0,0,125,0ZM101.24,117.8c7.13-3,15.06-2.26,22.57-3.45,9.82-1.56,17.32-7.47,19-16,1.91,3.61,4.73,6.82,7.24,9.91,3.5,4.32,9.46,6.63,14.66,8.33a149.58,149.58,0,0,1,.85,19.75c-.41,9.92-4.36,17.33-8.94,25.82a70.23,70.23,0,0,1-15.85,19.45c-3.78,3.27-8.9,7.2-14,8-.66.11-1.2.16-1.69.27-.5-.11-1-.16-1.69-.27-5.11-.85-10.24-4.78-14-8a70.19,70.19,0,0,1-15.84-19.45c-4.58-8.49-8.54-15.9-8.94-25.82,0-1.07-.06-2.12-.06-3.18a1.85,1.85,0,0,0,.39-.91C85.72,125.34,95.54,120.18,101.24,117.8ZM92.71,55.31c5.8-11.21,17.3-14.5,28.89-16.37,12.86-2.07,30.38,3,35.61,16.23h0a56.28,56.28,0,0,0-7.16-5.32c-1.17-.72-2.38-1.37-3.6-2,.62-.78-14.4-5.42-21.4-5.18-7-.24-22,4.4-21.4,5.18-1.22.6-2.43,1.25-3.6,2A58.2,58.2,0,0,0,92.71,55.31Zm32.36,158.42c-6.74-.29-14.32.2-14.38-9,0-6.1-.19-12.2-.23-18.32.69.57,1.39,1.12,2.13,1.65a38.77,38.77,0,0,0,7,3.59,14.11,14.11,0,0,0,11,0,38.86,38.86,0,0,0,7-3.59c.74-.53,1.44-1.08,2.13-1.65,0,6.12-.19,12.22-.23,18.32C139.38,213.93,131.81,213.44,125.07,213.73Zm65,10.55a30.84,30.84,0,0,0-7.57-7.56c-6.35-4-13.6-6.71-20.38-9.92-6.44-3.05-13-6.83-19.75-9.21-.1-4.64.48-9.32.48-14,1.21-1.13,2.41-2.29,3.65-3.48a63.74,63.74,0,0,0,7-8c4.71-1.86,9.8-8,12.71-12,5.61-7.75,10.77-15.09,13.45-24.34,4.65-16.1,3.62-33.7-1.77-49.51a72.44,72.44,0,0,0-17.8-28.48c8.3-6.81,2-24-3.53-30.2A27.13,27.13,0,0,0,151.2,23a1.51,1.51,0,0,0-1.09-1c-1.22-.55-2.47-1.06-3.74-1.55-.5-.2-1-.4-1.5-.57-11.87-4.3-25.31-5.7-37.12-.53a27.45,27.45,0,0,0-13.59,8.16c-5.49,6.12-11.68,22.92-3.88,29.92A72.37,72.37,0,0,0,72.21,86.23c-5.4,15.81-6.42,33.41-1.77,49.51,2.67,9.25,7.83,16.59,13.44,24.34,2.92,4,8,10.23,12.76,12.08a65,65,0,0,0,7,8c1.24,1.19,2.44,2.35,3.66,3.48,0,4.65.57,9.35.47,14-6.65,2.38-13.23,6.13-19.63,9.16-6.78,3.21-14,5.93-20.38,9.92a31,31,0,0,0-7.65,7.67,118.75,118.75,0,1,1,129.93-.11Zm-21.75-99.8a1.5,1.5,0,0,0,.59-.37q3.62-.33,4.06,3a11.56,11.56,0,0,1-.28,4.86,35.61,35.61,0,0,1-1.95,4.79c-.61,1.42-.3,8.76-3.21,7.28,0,0-.09,0-.13,0A83.65,83.65,0,0,0,168.3,124.48ZM82.77,144c-2.81,1.26-2.52-5.92-3.12-7.32a35.61,35.61,0,0,1-2-4.79,11.56,11.56,0,0,1-.28-4.86q.45-3.28,4-3a1.62,1.62,0,0,0,.37.23A83.82,83.82,0,0,0,82.77,144Z"/></svg>