<svg id="Camada_1" data-name="Camada 1" xmlns="http://www.w3.org/2000/svg" viewBox="0 0 250 250"><defs><style>.cls-1{fill:#fff;}.cls-2{fill:#00695c;}</style></defs><title>Profile masculino</title><rect class="cls-1" width="250" height="250"/><path class="cls-2" d="M125,0A125,125,0,1,0,250,125,125.14,125.14,0,0,0,125,0ZM94.42,184.62c1.14-.75,2.24-1.53,3.28-2.37,3.27-2.62,4-4,4.09-8.23.07-4.48.34-8.94.41-13.41,1.14,1,2.28,1.92,3.41,2.82,4.93,3.94,9.78,8.44,15.72,10.56,0,.07,2.62.78,2.62.78s2.59-.71,2.62-.78c5.94-2.12,10.79-6.62,15.72-10.56,1.13-.9,2.27-1.86,3.4-2.82.07,4.47.34,8.93.42,13.41.07,4.2.81,5.61,4.08,8.23,1,.84,2.15,1.62,3.28,2.37,1,5.44.54,10.46.7,15.9.18,6.32-4.33,10.28-9.61,12.72-6.58,3-13.65,2.65-20.61,2.9-7-.25-14,.15-20.61-2.9-5.29-2.44-9.8-6.4-9.61-12.72C93.88,195.08,93.4,190.06,94.42,184.62ZM91.3,145.43c-7.19-6.23-8.37-14.21-8.46-23.29-.1-9.44-.14-18.81.93-28.2a1.53,1.53,0,0,0,.23-.46c2.94-10.89,15.06-20.39,25.54-11.54,4.59,3.88,7.2,6.14,12.31,6.91a1.47,1.47,0,0,0,.91.31H123c.4,0,.74-.05,1.11-.07s.72.06,1.12.07h.18a1.42,1.42,0,0,0,.91-.31c5.11-.77,7.72-3,12.31-6.91,10.42-8.79,22.45.53,25.48,11.34,1.15,9.61,1.09,19.2,1,28.86-.09,9.08-1.28,17.06-8.46,23.29-9.73,8.43-19.47,22.82-32.65,26.12C110.76,168.25,101,153.86,91.3,145.43Zm88.47,83.07c-.74-10.8-1.5-21.63-1.77-32.46,3.17,1,6.46,2.18,8.2,4.26,3.54,4.21,6.87,8.64,10.5,12.76,1.12,1.28,2.22,2.59,3.32,3.92a119.87,119.87,0,0,1-20.12,13.27C179.86,229.67,179.81,229.09,179.77,228.5Zm-111.65,0c0,.23,0,.46-.05.69A118.87,118.87,0,0,1,48.78,216c.8-1,1.59-2,2.42-2.91,3.63-4.12,6.95-8.55,10.49-12.76,1.74-2.08,5-3.26,8.2-4.26C69.62,206.87,68.86,217.7,68.12,228.5ZM202.4,215c-.14-.16-.27-.34-.4-.5-5.19-6.18-10.44-15.78-18.08-19.13-8.4-3.67-16.57-7.28-24.75-11.34-5.75-2.86-10-5.36-9.92-12.68.05-4.22-.49-8.37-.49-12.59a1.53,1.53,0,0,0-.13-.66A117.22,117.22,0,0,0,160,146.64c4.17-4.91,6.07-8.85,7.11-13.95,2.17,1.19,5.15-.42,6.68-2.15,1.23-1.39,1.38-3.47,1.29-5.21-.15-3.2,1.36-5.36,2.32-8.25,1.8-5.44,1-12.14-2.47-14.41C176.23,99,176,94.23,176,90.56c0-7-.32-13.85-1-20.82-.65-6.51-2.93-11.41-6.37-16.83-4.37-6.89-4.94-15.39-5.13-23.41a1.57,1.57,0,0,0-2.67-1.1c-4.79,5.49-9.15,10.54-15,14.22a21.47,21.47,0,0,0,0-4.54c-.43-4.33-1.1-11.64-4.65-14.63a1.58,1.58,0,0,0-2.21,0c-3.2,4-6.09,7.88-10.11,11.17-2.12,1.73-4.4,3.22-6.66,4.73.47-4.24.2-8.71-1.65-12.12a1.58,1.58,0,0,0-2.7,0c-9.4,16.67-28.9,20.71-40,35.35-3.88,5.1-5.62,12.15-6.3,18.4-.27,2.41-.17,20.47,1.92,21.43-3.87,2-4.79,9-2.91,14.67,1,2.89,2.47,5,2.32,8.25-.09,1.74.06,3.82,1.29,5.21,1.53,1.73,4.52,3.34,6.68,2.15,1,5.1,2.94,9,7.12,13.95a117.1,117.1,0,0,0,11.32,11.41,1.69,1.69,0,0,0-.13.66c0,4.22-.53,8.37-.48,12.59.08,7.32-4.18,9.82-9.93,12.68C80.54,188,72.37,191.65,64,195.32c-7.42,3.25-12.58,12.37-17.62,18.55a118.75,118.75,0,1,1,156,1.08ZM168.29,106.54c7.78-5.1,7.86,7,5.13,11.55a17,17,0,0,0-1.4,4.22c-.09.34-.2,2.86-.58,5.09-.26.63-.43,1.32-1.05,1.68a7.41,7.41,0,0,1-1.71.79,1.8,1.8,0,0,0-1.05-.49c.14-1,.26-2.13.37-3.29A141.42,141.42,0,0,0,168.29,106.54ZM79.9,126.09c.11,1.16.23,2.25.36,3.29a1.74,1.74,0,0,0-1.05.49,7.41,7.41,0,0,1-1.71-.79c-.62-.36-.79-1.05-1-1.68-.38-2.23-.49-4.75-.58-5.09a17,17,0,0,0-1.4-4.22c-2.74-4.51-2.66-16.66,5.13-11.54A142.87,142.87,0,0,0,79.9,126.09Z"/></svg>