<?xml version="1.0" encoding="utf-8"?>
<!-- Generator: Adobe Illustrator 22.0.1, SVG Export Plug-In . SVG Version: 6.00 Build 0)  -->
<svg version="1.1" id="Camada_1" xmlns="http://www.w3.org/2000/svg" xmlns:xlink="http://www.w3.org/1999/xlink" x="0px" y="0px"
	 viewBox="0 0 22 21" style="enable-background:new 0 0 22 21;" xml:space="preserve">
<style type="text/css">
	.st0{fill:#00695C;}
</style>
<g>
	<g>
		<path class="st0" d="M11,20.8c-0.6,0-1.2-0.2-1.7-0.7l-8-8c-0.5-0.5-0.8-1.3-0.6-2.1l1.2-6.8C2.1,2.2,3,1.3,4.1,1.2l6.5-1
			c0.8-0.1,1.5,0.1,2,0.7l8,8c0.5,0.5,0.7,1.1,0.7,1.7c0,0.6-0.3,1.3-0.8,1.7l-7.7,7.7C12.4,20.5,11.8,20.8,11,20.8
			C11.1,20.8,11.1,20.8,11,20.8z M10.9,1.2c-0.1,0-0.1,0-0.2,0l-6.5,1C3.6,2.3,3,2.8,2.9,3.4l-1.2,6.8c-0.1,0.5,0.1,0.9,0.4,1.2l8,8
			c0.3,0.3,0.6,0.4,1,0.4c0.4,0,0.8-0.2,1.1-0.5l7.7-7.7c0.6-0.6,0.6-1.5,0.1-2.1l-8-8C11.6,1.3,11.3,1.2,10.9,1.2z"/>
	</g>
	<g>
		<path class="st0" d="M9.3,9.1"/>
	</g>
	<g>
		<circle class="st0" cx="6" cy="5.1" r="1.6"/>
	</g>
</g>
</svg>
