<svg width="32" height="28" viewBox="0 0 32 28" fill="none" xmlns="http://www.w3.org/2000/svg">
<g id="sugest&#195;&#163;o">
<path id="Ellipse 5" d="M19.3443 20.9695C19.1536 20.8557 18.9305 20.8086 18.7101 20.8357C17.8315 20.9436 16.9258 21 16 21C11.7579 21 7.96127 19.8162 5.25282 17.9541C2.53994 16.089 1 13.6135 1 11C1 8.38654 2.53994 5.91097 5.25282 4.04587C7.96127 2.18381 11.7579 1 16 1C20.2421 1 24.0387 2.18381 26.7472 4.04587C29.4601 5.91097 31 8.38654 31 11C31 13.889 29.1122 16.6176 25.8486 18.5236C25.4417 18.7613 25.2559 19.2508 25.4027 19.6986L27.3937 25.7719L19.3443 20.9695Z" stroke="#00695C" stroke-linecap="round" stroke-linejoin="round"/>
<g id="Group">
<circle id="Ellipse 6" cx="8" cy="12" r="2" fill="#00695C"/>
<circle id="Ellipse 6_2" cx="24" cy="12" r="2" fill="#00695C"/>
<circle id="Ellipse 6_3" cx="16" cy="12" r="2" fill="#00695C"/>
</g>
</g>
</svg>
