<svg id="Camada_1" data-name="Camada 1" xmlns="http://www.w3.org/2000/svg" viewBox="0 0 250 250"><defs><style>.cls-1{fill:#00695c;}</style></defs><title>Sugestão</title><path class="cls-1" d="M214.07,229.69a7.84,7.84,0,0,1-4-1.11l-62.5-37.51a5.4,5.4,0,0,1-.47-.3c-6,1.41-14.15,1.41-22.08,1.41-32.39,0-63.86-8.75-88.6-24.67C13.27,152.65,0,130.32,0,106.25,0,84.47,12.4,63.41,35.87,45.36c25.29-16.28,56.75-25,89.13-25S188.84,29.08,213.61,45C236.74,59.87,250,82.2,250,106.25c0,25.37-16.2,49.47-44.46,66.1l15.94,47.06a7.82,7.82,0,0,1-7.41,10.28Zm-57.84-51.62L200,204.32l-9-26.85c-3-5.88.11-15.35,7-18.84C221,145.14,234.38,126,234.38,106.25c0-18.63-10.66-36.17-29.23-48.12-22.27-14.31-50.73-22.2-80.15-22.2s-57.88,7.89-80.15,22.2c-13,10.06-29.22,26.95-29.22,48.12,0,18.64,10.65,36.18,29.22,48.11,22.26,14.31,50.72,22.2,80.15,22.2,7.21,0,14.67,0,20-1.33a8,8,0,0,1,1.89-.23A13.49,13.49,0,0,1,156.23,178.07Z"/><circle class="cls-1" cx="62.5" cy="114.06" r="15.62"/><circle class="cls-1" cx="187.5" cy="114.06" r="15.62"/><circle class="cls-1" cx="125" cy="114.06" r="15.62"/></svg>