<svg id="Camada_1" data-name="Camada 1" xmlns="http://www.w3.org/2000/svg" viewBox="0 0 250 250"><defs><style>.cls-1{fill:#00695c;}</style></defs><title>supermercado</title><path class="cls-1" d="M249.74,90c0-.19.12-.39.16-.59a5.36,5.36,0,0,0,0-.7A5.81,5.81,0,0,0,250,88c0-.21-.05-.42-.07-.63a6.83,6.83,0,0,0-.11-.79,5.22,5.22,0,0,0-.18-.56,7,7,0,0,0-.28-.81s0-.07,0-.11L219.91,21.89a7.35,7.35,0,0,0-6.67-4.25H36.76a7.35,7.35,0,0,0-6.67,4.25L.68,85.13s0,.07,0,.11a7,7,0,0,0-.28.81,5.22,5.22,0,0,0-.18.56,6.83,6.83,0,0,0-.11.79c0,.21-.06.42-.07.63a5.81,5.81,0,0,0,.05.72,5.36,5.36,0,0,0,.05.7c0,.2.11.4.16.59a7.66,7.66,0,0,0,.23.82l0,.1C5,102.09,14.71,113.87,29.4,116.89V225a7.35,7.35,0,0,0,7.36,7.35H213.24A7.35,7.35,0,0,0,220.6,225V116.89c14.69-3,24.43-14.8,28.88-25.93l0-.1A7.66,7.66,0,0,0,249.74,90ZM102.94,217.65V155.88h44.12v61.77Zm58.83,0V148.53a7.35,7.35,0,0,0-7.36-7.36H95.59a7.35,7.35,0,0,0-7.36,7.36v69.12H44.11V116.89a37.88,37.88,0,0,0,22.06-14.12c6.56,8.31,16.41,14.88,29.42,14.88a36.16,36.16,0,0,0,26.5-11.58,45.52,45.52,0,0,0,5.85,7.16,35.5,35.5,0,0,0,50,0,26.44,26.44,0,0,0,7.21-8.88,37.34,37.34,0,0,0,20.73,12.54V217.65Zm51.47-114.71c-14.47,0-21-13.34-22.59-17.44a7.34,7.34,0,0,0-14,4.31A7.81,7.81,0,0,0,175,92.64c-1.47,1.47-2.94,5.89-7.35,10.3a22.46,22.46,0,0,1-14.71,5.88c-5.88,0-10.29-2.94-14.7-5.88s-5.81-7.13-7.25-10.06c.29-.64.58-1.28.83-1.92a7.35,7.35,0,0,0-13.64-5.46c-1.64,4.1-8.12,17.44-22.59,17.44S74.63,89.6,73,85.5l0-.06a6.89,6.89,0,0,0-.51-1c-.06-.1-.1-.21-.17-.31a6.75,6.75,0,0,0-.68-.84c-.08-.09-.14-.19-.22-.27a7.75,7.75,0,0,0-.62-.52c-.17-.13-.32-.28-.5-.4s-.3-.16-.44-.24a7,7,0,0,0-.86-.45l-.06,0c-.13,0-.27-.07-.4-.12a6.94,6.94,0,0,0-.92-.26A5.41,5.41,0,0,0,67,81a7.9,7.9,0,0,0-.85-.07c-.2,0-.4,0-.6,0a5.92,5.92,0,0,0-.82.1,6.29,6.29,0,0,0-.71.2c-.19.06-.39.09-.58.17l-.08,0a6.7,6.7,0,0,0-.7.37c-.2.1-.4.2-.59.32s-.25.21-.38.31a6.94,6.94,0,0,0-.72.6c-.08.08-.14.17-.22.26a7.9,7.9,0,0,0-.69.84c-.07.11-.12.23-.18.34a8.6,8.6,0,0,0-.5,1l0,.06c-1.64,4.1-8.12,17.44-22.59,17.44-12,0-18.53-9.21-21.33-14.67l26-55.92h167.1l26,55.92C231.77,93.73,225.28,102.94,213.24,102.94Z"/></svg>