<svg width="18" height="16" viewBox="0 0 18 16" fill="none" xmlns="http://www.w3.org/2000/svg">
<path d="M17 5.25L15 1H3L1 5.25" stroke="#828282" stroke-linecap="round" stroke-linejoin="round"/>
<path d="M3 6.75V14.5417H15V6.75" stroke="#828282" stroke-linecap="round" stroke-linejoin="round"/>
<path fill-rule="evenodd" clip-rule="evenodd" d="M7 9.3335H11V14.5418H7V9.3335Z" stroke="#828282" stroke-linecap="round" stroke-linejoin="round"/>
<path d="M1 5.25C1.16667 5.75 1.8 6.75 3 6.75C4.2 6.75 4.83333 5.75 5 5.25" stroke="#828282" stroke-linecap="round"/>
<path d="M5 5.25C5.16667 5.75 5.8 6.75 7 6.75C8.2 6.75 8.83333 5.75 9 5.25" stroke="#828282" stroke-linecap="round"/>
<path d="M9 5.25C9.16667 5.75 9.8 6.75 11 6.75C12.2 6.75 12.8333 5.75 13 5.25" stroke="#828282" stroke-linecap="round"/>
<path d="M13 5.25C13.1667 5.75 13.8 6.75 15 6.75C16.2 6.75 16.8333 5.75 17 5.25" stroke="#828282" stroke-linecap="round"/>
</svg>
