<svg id="Camada_1" data-name="Camada 1" xmlns="http://www.w3.org/2000/svg" viewBox="0 0 250 250"><defs><style>.cls-1,.cls-2{fill:#00695c;}.cls-2{fill-rule:evenodd;}</style></defs><title>Termo de uso</title><path class="cls-1" d="M125,250C55.36,250,0,194.64,0,125S55.36,0,125,0,250,55.36,250,125,194.64,250,125,250Zm0-232.14C66.07,17.86,17.86,66.07,17.86,125S66.07,232.14,125,232.14,232.14,183.93,232.14,125,183.93,17.86,125,17.86Z"/><path class="cls-2" d="M112.5,112.5a14.09,14.09,0,0,1,14.29-14.29c8.92,0,14.28,5.36,14.28,14.29v67.86a14.08,14.08,0,0,1-14.28,14.28c-8.93,0-14.29-5.35-14.29-14.28Z"/><path class="cls-2" d="M112.5,71.43a14.09,14.09,0,0,1,14.29-14.29c8.92,0,14.28,5.36,14.28,14.29s-5.36,14.28-14.28,14.28A14.08,14.08,0,0,1,112.5,71.43Z"/></svg>